<svg width="30" height="31" viewBox="0 0 30 31" fill="none" xmlns="http://www.w3.org/2000/svg">
<g clip-path="url(#clip0_554_320)">
<path d="M28.5463 27.7433H10.4998C10.3124 27.7433 10.1611 27.5927 10.1611 27.4061V24.9314C10.1611 24.7448 10.3124 24.5942 10.4998 24.5942C10.6873 24.5942 10.8386 24.7448 10.8386 24.9314V27.0689H28.2076V3.92431H10.8386V6.1428C10.8386 6.32936 10.6873 6.47995 10.4998 6.47995C10.3124 6.47995 10.1611 6.32936 10.1611 6.1428V3.58716C10.1611 3.4006 10.3124 3.25 10.4998 3.25H28.5463C28.7337 3.25 28.885 3.4006 28.885 3.58716V27.4061C28.885 27.5927 28.7337 27.7433 28.5463 27.7433Z" fill="#164064"/>
<path d="M25.6646 24.8775H13.3807C13.1933 24.8775 13.042 24.7269 13.042 24.5404V23.8233C13.042 23.6368 13.1933 23.4862 13.3807 23.4862C13.5681 23.4862 13.7194 23.6368 13.7194 23.8233V24.2032H25.3281V6.79248H13.7194V7.21954C13.7194 7.4061 13.5681 7.5567 13.3807 7.5567C13.1933 7.5567 13.042 7.4061 13.042 7.21954V6.45532C13.042 6.26876 13.1933 6.11816 13.3807 6.11816H25.6668C25.8542 6.11816 26.0055 6.26876 26.0055 6.45532V24.5404C26.0055 24.7269 25.8542 24.8775 25.6668 24.8775H25.6646Z" fill="#164064"/>
<path d="M4.1639 26.6983C4.09616 26.6983 4.03068 26.6781 3.97197 26.6399C3.87939 26.577 3.8252 26.4736 3.8252 26.3612V4.6326C3.8252 4.52022 3.88165 4.41682 3.97197 4.35389C4.06455 4.29095 4.18197 4.27746 4.28584 4.31792L13.4987 7.90077C13.6297 7.95022 13.7133 8.07609 13.7133 8.21545V22.7783C13.7133 22.9177 13.6275 23.0413 13.4987 23.093L4.28584 26.6759C4.2452 26.6916 4.20455 26.6983 4.16165 26.6983H4.1639ZM4.50261 5.1271V25.8689L13.0381 22.5491V8.44696L4.50261 5.1271Z" fill="#164064"/>
<path d="M3.12484 18.5749H1.33871C1.15129 18.5749 1 18.4243 1 18.2377V12.7893C1 12.6027 1.15129 12.4521 1.33871 12.4521H3.12484C3.31226 12.4521 3.46355 12.6027 3.46355 12.7893C3.46355 12.9759 3.31226 13.1265 3.12484 13.1265H1.67742V17.9006H3.12484C3.31226 17.9006 3.46355 18.0512 3.46355 18.2377C3.46355 18.4243 3.31226 18.5749 3.12484 18.5749Z" fill="#164064"/>
<path d="M21.7809 19.7754H17.2625C17.0751 19.7754 16.9238 19.6248 16.9238 19.4382V14.2483C16.9238 14.0617 17.0751 13.9111 17.2625 13.9111C17.45 13.9111 17.6012 14.0617 17.6012 14.2483V19.1011H21.4422V14.2483C21.4422 14.0617 21.5935 13.9111 21.7809 13.9111C21.9683 13.9111 22.1196 14.0617 22.1196 14.2483V19.4382C22.1196 19.6248 21.9683 19.7754 21.7809 19.7754Z" fill="#164064"/>
<path d="M20.1461 17.0124H18.8996C18.7122 17.0124 18.5609 16.8618 18.5609 16.6752V13.4497H17.9422C17.7548 13.4497 17.6035 13.2991 17.6035 13.1126V11.5549C17.6035 11.3684 17.7548 11.2178 17.9422 11.2178H21.1035C21.2909 11.2178 21.4422 11.3684 21.4422 11.5549V13.1126C21.4422 13.2991 21.2909 13.4497 21.1035 13.4497H20.4848V16.6752C20.4848 16.8618 20.3335 17.0124 20.1461 17.0124V17.0124ZM19.2384 16.338H19.8074V13.1126C19.8074 12.926 19.9587 12.7754 20.1461 12.7754H20.7648V11.8921H18.2809V12.7754H18.8996C19.0871 12.7754 19.2384 12.926 19.2384 13.1126V16.338V16.338Z" fill="#164064"/>
</g>
<defs>
<clipPath id="clip0_554_320">
<rect width="28" height="24.5" fill="white" transform="translate(1 3.25)"/>
</clipPath>
</defs>
</svg>
