<svg width="30" height="31" viewBox="0 0 30 31" fill="none" xmlns="http://www.w3.org/2000/svg">
<path d="M15.1521 16H11.0979C11.0056 16 10.9171 16.0349 10.8519 16.097C10.7867 16.1592 10.75 16.2434 10.75 16.3313V24.6687C10.75 24.7566 10.7867 24.8408 10.8519 24.903C10.9171 24.9651 11.0056 25 11.0979 25H15.1521C15.2444 25 15.3329 24.9651 15.3981 24.903C15.4633 24.8408 15.5 24.7566 15.5 24.6687V16.3313C15.5 16.2434 15.4633 16.1592 15.3981 16.097C15.3329 16.0349 15.2444 16 15.1521 16ZM14.8042 24.3374H11.4412V20.8324H14.8042V24.3374ZM14.8042 20.1698H11.4412V16.6626H14.8042V20.1698Z" fill="#164064"/>
<path d="M12.2272 23.7497C12.2643 23.7498 12.3009 23.7407 12.3338 23.7233C12.3666 23.7059 12.3946 23.6807 12.4154 23.6499C12.5069 23.5124 12.631 23.3996 12.7766 23.3216C12.9222 23.2436 13.0849 23.2028 13.2501 23.2028C13.4152 23.2028 13.5779 23.2436 13.7235 23.3216C13.8691 23.3996 13.9932 23.5124 14.0847 23.6499C14.1184 23.6999 14.1705 23.7343 14.2296 23.7458C14.2887 23.7573 14.35 23.7448 14.3999 23.7112C14.4498 23.6775 14.4843 23.6253 14.4958 23.5662C14.5073 23.5071 14.4948 23.4459 14.4612 23.3959C14.3278 23.1971 14.1476 23.0342 13.9364 22.9216C13.7251 22.8089 13.4894 22.75 13.2501 22.75C13.0107 22.75 12.775 22.8089 12.5638 22.9216C12.3525 23.0342 12.1723 23.1971 12.0389 23.3959C12.0222 23.4206 12.0106 23.4484 12.0046 23.4776C11.9986 23.5069 11.9985 23.537 12.0042 23.5662C12.0098 23.5955 12.0213 23.6234 12.0377 23.6483C12.0542 23.6731 12.0754 23.6945 12.1002 23.7112C12.1381 23.7356 12.1821 23.7489 12.2272 23.7497V23.7497Z" fill="#164064"/>
<path d="M13 14.5C13.0989 14.5 13.1956 14.4707 13.2778 14.4157C13.36 14.3608 13.4241 14.2827 13.4619 14.1913C13.4998 14.1 13.5097 13.9994 13.4904 13.9025C13.4711 13.8055 13.4235 13.7164 13.3536 13.6464C13.2836 13.5765 13.1945 13.5289 13.0975 13.5096C13.0006 13.4903 12.9 13.5002 12.8087 13.5381C12.7173 13.5759 12.6392 13.64 12.5843 13.7222C12.5293 13.8044 12.5 13.9011 12.5 14C12.5 14.1326 12.5527 14.2598 12.6464 14.3536C12.7402 14.4473 12.8674 14.5 13 14.5Z" fill="#164064"/>
<path d="M13 26.5C12.901 26.5 12.8043 26.5294 12.722 26.5844C12.6397 26.6395 12.5756 26.7177 12.5379 26.8092C12.5001 26.9006 12.4903 27.0013 12.5098 27.0983C12.5292 27.1954 12.5771 27.2845 12.6472 27.3543C12.7173 27.4242 12.8066 27.4716 12.9038 27.4907C13.0009 27.5097 13.1015 27.4995 13.1928 27.4613C13.2842 27.4231 13.3621 27.3587 13.4168 27.2762C13.4715 27.1937 13.5004 27.0968 13.5 26.9979C13.4994 26.8656 13.4465 26.739 13.3528 26.6457C13.2591 26.5524 13.1322 26.5 13 26.5Z" fill="#164064"/>
<path d="M20.481 3.67704C19.8056 3.05278 19.1869 2.36952 18.6319 1.63533C18.5918 1.58086 18.5361 1.53993 18.4722 1.51799C18.4084 1.49605 18.3394 1.49413 18.2744 1.51249C18.2095 1.53085 18.1516 1.56863 18.1086 1.62079C18.0655 1.67296 18.0392 1.73704 18.0333 1.80455C17.8657 3.32831 17.2619 4.77063 16.2951 5.95697C14.8384 7.83169 14.3817 9.66855 14.4083 11.2694H5.83257C5.74436 11.2694 5.65977 11.3046 5.59741 11.3672C5.53504 11.4299 5.5 11.5148 5.5 11.6034V29.166C5.5 29.2546 5.53504 29.3395 5.59741 29.4022C5.65977 29.4648 5.74436 29.5 5.83257 29.5H20.2969C20.3852 29.5 20.4697 29.4648 20.5321 29.4022C20.5945 29.3395 20.6295 29.2546 20.6295 29.166V19.8637C21.2946 19.2403 24.4185 16.1232 24.4984 11.8483C24.5538 8.97388 23.2036 6.22193 20.481 3.67704ZM19.9644 16.1454C19.5563 16.7292 19.0914 17.2707 18.5765 17.7619C18.5261 17.8069 18.4906 17.8663 18.4746 17.9321C18.4586 17.9979 18.4629 18.0671 18.487 18.1303C18.511 18.1936 18.5537 18.2481 18.6093 18.2864C18.6649 18.3248 18.7307 18.3453 18.7982 18.3452C18.8797 18.3462 18.9586 18.3168 19.0199 18.2628C19.3593 17.9494 19.6764 17.6123 19.9688 17.2542V19.6566C19.96 19.6992 19.96 19.7432 19.9688 19.7858V28.832H6.16513V11.9374H14.4504C14.639 13.6107 15.2732 15.202 16.2862 16.544C16.3432 16.6116 16.4247 16.6537 16.5126 16.661C16.6006 16.6683 16.6878 16.6402 16.7551 16.583C16.8225 16.5257 16.8644 16.4439 16.8716 16.3556C16.8789 16.2673 16.851 16.1797 16.7939 16.112C15.8752 14.8951 15.2965 13.4539 15.1178 11.9374H16.7141C16.873 13.0833 17.327 14.1677 18.0311 15.0834C18.0866 15.1522 18.1671 15.196 18.2549 15.2052C18.3426 15.2144 18.4304 15.1882 18.4989 15.1324C18.5674 15.0766 18.611 14.9957 18.6202 14.9076C18.6293 14.8195 18.6032 14.7314 18.5477 14.6626C17.9367 13.8679 17.5376 12.93 17.3881 11.9374H19.9644V16.1454ZM20.2969 11.2694H17.3393C17.3393 10.2252 17.6386 9.02064 18.6097 7.76935C18.8724 7.43234 19.118 7.08234 19.3458 6.72066C20.8401 8.37941 21.5851 10.0782 21.5629 11.7726C21.521 12.9295 21.2015 14.0592 20.6317 15.0656V11.6034C20.6317 11.5593 20.6231 11.5157 20.6062 11.4751C20.5894 11.4344 20.5647 11.3975 20.5335 11.3664C20.5024 11.3354 20.4655 11.3108 20.4249 11.2942C20.3843 11.2775 20.3408 11.2691 20.2969 11.2694ZM20.6295 18.9152V16.3592C21.4166 15.2081 22.2014 13.6072 22.2258 11.7815C22.2547 9.79546 21.339 7.82946 19.5276 5.93693C19.4921 5.89963 19.4484 5.87117 19.4 5.85382C19.3516 5.83646 19.2998 5.83069 19.2488 5.83696C19.1978 5.84323 19.1489 5.86137 19.1061 5.88993C19.0633 5.9185 19.0277 5.9567 19.0022 6.0015C18.7272 6.4741 18.4213 6.92782 18.0865 7.35967C16.9957 8.75569 16.6565 10.1005 16.6698 11.2694H15.0757C15.0513 9.79324 15.4725 8.10109 16.8183 6.3711C17.6927 5.28827 18.3003 4.0136 18.592 2.65062C19.0415 3.18686 19.5235 3.69473 20.0353 4.17132C22.6116 6.57817 23.8909 9.15868 23.8421 11.8416C23.7734 15.1613 21.6627 17.8153 20.6295 18.9152Z" fill="#164064"/>
</svg>
