<svg width="30" height="30" viewBox="0 0 30 30" fill="none" xmlns="http://www.w3.org/2000/svg">
<path d="M10.8772 29C10.8159 29.0001 10.7558 28.9833 10.7034 28.9515C9.56528 28.2038 8.52607 27.3149 7.61051 26.3059C5.5757 24.077 4.5 21.6144 4.5 19.1584C4.5 14.8042 6.88458 12.1343 9.40774 9.31899C11.4337 7.06362 13.5324 4.70905 14.8038 1.21686C14.8221 1.16795 14.8516 1.12397 14.8897 1.08838C14.9279 1.0528 14.9738 1.0266 15.0238 1.01183C15.0753 0.997598 15.1294 0.996185 15.1816 1.00771C15.2337 1.01924 15.2823 1.04336 15.323 1.07797C22.2413 6.87623 25.75 12.9611 25.75 19.1562C25.75 25.7217 19.5466 28.9317 19.4828 28.9625C19.411 28.9986 19.3286 29.0072 19.2509 28.9868C19.1733 28.9663 19.1057 28.9182 19.0609 28.8514C19.0161 28.7846 18.9972 28.7038 19.0076 28.624C19.0181 28.5442 19.0572 28.4709 19.1176 28.418C19.1418 28.3981 21.4054 26.3765 21.4054 23.3296C21.4054 21.05 20.5629 19.6853 19.5884 18.1046C18.902 17.0022 18.1321 15.7456 17.6086 14.0348C15.8487 16.2923 14.7488 18.6293 14.3089 20.9861C14.297 21.0498 14.2667 21.1087 14.2218 21.1554C14.1768 21.202 14.1191 21.2344 14.0559 21.2484C13.9929 21.2629 13.9271 21.2582 13.8668 21.235C13.8064 21.2119 13.7544 21.1713 13.7171 21.1183C13.0849 20.2908 12.571 19.3788 12.1905 18.4088C10.3207 20.5032 9.37474 22.677 9.37474 24.8773C9.36419 25.5533 9.51028 26.2225 9.80153 26.8323C10.0928 27.442 10.5212 27.9758 11.0532 28.3915C11.1123 28.4308 11.1572 28.4881 11.1812 28.5549C11.2052 28.6218 11.2072 28.6946 11.1867 28.7626C11.1662 28.8307 11.1244 28.8903 11.0675 28.9326C11.0105 28.975 10.9415 28.9978 10.8706 28.9978L10.8772 29ZM17.767 12.9964H17.8395C17.8974 13.0111 17.9501 13.0413 17.9923 13.0835C18.0345 13.1258 18.0646 13.1787 18.0793 13.2367C18.5677 15.179 19.375 16.4863 20.1537 17.7496C21.1392 19.348 22.0697 20.856 22.0697 23.323C22.0585 24.6768 21.6782 26.0018 20.9698 27.1547C22.7077 25.7415 25.0967 23.0827 25.0967 19.1496C25.0967 13.2631 21.797 7.45164 15.2592 1.87606C13.9239 5.26021 11.7901 7.64565 9.89829 9.75992C7.35533 12.6017 5.15994 15.0511 5.15994 19.1584C5.15994 22.0377 6.76799 24.3923 8.08786 25.8584C8.42663 26.2287 8.7654 26.5638 9.08877 26.8593C8.83565 26.2287 8.70787 25.5547 8.7126 24.8751C8.7126 22.3574 9.8477 19.8903 12.0871 17.5402C12.1274 17.4985 12.178 17.4682 12.2336 17.4522C12.2893 17.4361 12.3482 17.435 12.4044 17.4488C12.4607 17.4626 12.5123 17.4909 12.5543 17.5309C12.5963 17.5709 12.6271 17.6212 12.6436 17.6769C12.9043 18.543 13.3016 19.3617 13.8205 20.102C14.4013 17.7165 15.6354 15.3664 17.4964 13.1022C17.5305 13.0652 17.5726 13.0364 17.6195 13.0181C17.6664 12.9997 17.7168 12.9923 17.767 12.9964V12.9964Z" fill="#164064"/>
</svg>
