<svg width="30" height="31" viewBox="0 0 30 31" fill="none" xmlns="http://www.w3.org/2000/svg">
<g clip-path="url(#clip0_554_299)">
<path d="M28.5488 28.71H1.45199C1.36216 28.71 1.27601 28.7456 1.21249 28.8092C1.14897 28.8727 1.11328 28.9588 1.11328 29.0487C1.11328 29.1385 1.14897 29.2247 1.21249 29.2882C1.27601 29.3517 1.36216 29.3874 1.45199 29.3874H28.5488C28.6386 29.3874 28.7247 29.3517 28.7883 29.2882C28.8518 29.2247 28.8875 29.1385 28.8875 29.0487C28.8875 28.9588 28.8518 28.8727 28.7883 28.8092C28.7247 28.7456 28.6386 28.71 28.5488 28.71V28.71Z" fill="#164064"/>
<path d="M1.42201 13.8407C1.33218 13.8446 1.24757 13.884 1.1868 13.9503C1.12603 14.0166 1.09408 14.1043 1.09797 14.1941C1.10187 14.2839 1.14129 14.3685 1.20756 14.4293C1.27383 14.4901 1.36153 14.522 1.45136 14.5181H1.48072C7.8191 13.9468 11.0143 12.8381 11.1475 12.7907L11.1814 12.7749L11.2085 12.7591L11.2356 12.7388L11.2604 12.7184L11.2807 12.6959L11.3033 12.6688L11.3036 12.6684C11.3194 12.6414 11.3194 12.6414 11.3351 12.6144L11.3349 12.6146C11.3397 12.6036 11.3435 12.5923 11.3462 12.5807C11.3475 12.571 11.3475 12.5611 11.3462 12.5513V12.5197C11.3462 12.5197 11.3462 12.4972 11.3462 12.4836C11.3462 12.4701 11.3462 12.4836 11.3462 12.4836V10.9955H14.3223V15.6313C14.3223 15.7212 14.358 15.8073 14.4215 15.8708C14.4851 15.9344 14.5712 15.9701 14.661 15.9701C14.7509 15.9701 14.837 15.9344 14.9005 15.8708C14.9641 15.8073 14.9997 15.7212 14.9997 15.6313V10.9955H18.161V12.4768C18.1599 12.4896 18.1599 12.5024 18.161 12.5152C18.1599 12.5242 18.1599 12.5333 18.161 12.5423C18.1692 12.5629 18.176 12.584 18.1814 12.6055C18.1865 12.6165 18.1926 12.6271 18.1994 12.6372C18.2026 12.6461 18.2071 12.6545 18.213 12.662C18.2207 12.6742 18.2298 12.6856 18.2401 12.6959L18.2536 12.7117L18.283 12.7365L18.3056 12.7546L18.3304 12.7681L18.3643 12.7862C18.502 12.8404 21.7965 14.1139 28.5097 14.5926H28.5481C28.638 14.5959 28.7254 14.5634 28.7913 14.5022C28.8571 14.441 28.896 14.3562 28.8993 14.2663C28.9026 14.1765 28.87 14.0891 28.8088 14.0232C28.7476 13.9574 28.6628 13.9185 28.573 13.9152C22.903 13.5155 19.6694 12.5175 18.8385 12.233V10.9955H21.0062C21.096 10.9955 21.1822 10.9599 21.2457 10.8963C21.3092 10.8328 21.3449 10.7467 21.3449 10.6568C21.3449 10.567 21.3092 10.4808 21.2457 10.4173C21.1822 10.3538 21.096 10.3181 21.0062 10.3181H14.9997V5.74328H18.161V7.22231C18.1599 7.23509 18.1599 7.24793 18.161 7.2607C18.1599 7.27045 18.1599 7.2803 18.161 7.29006C18.1601 7.29982 18.1601 7.30965 18.161 7.31941C18.1597 7.32991 18.1597 7.34053 18.161 7.35102C18.1657 7.36228 18.1718 7.3729 18.1791 7.38264C18.1823 7.39159 18.1868 7.39998 18.1927 7.40747C18.2005 7.42039 18.2095 7.4325 18.2197 7.4436L18.2333 7.45941L18.2627 7.48199C18.2691 7.48922 18.2768 7.49532 18.2852 7.50006L18.3101 7.5136L18.3439 7.53167C18.4817 7.58586 21.7762 8.85715 28.4894 9.33812H28.5481C28.5926 9.33975 28.637 9.3326 28.6787 9.31709C28.7204 9.30157 28.7587 9.27799 28.7913 9.2477C28.8239 9.2174 28.8502 9.18097 28.8687 9.1405C28.8873 9.10003 28.8976 9.05631 28.8993 9.01183C28.9009 8.96735 28.8938 8.92298 28.8782 8.88127C28.8627 8.83955 28.8391 8.80129 28.8088 8.76869C28.7785 8.73608 28.7421 8.70976 28.7016 8.69124C28.6612 8.67271 28.6175 8.66233 28.573 8.6607C22.903 8.26102 19.6694 7.26296 18.8385 6.9807V5.74328H21.0062C21.096 5.74328 21.1822 5.7076 21.2457 5.64408C21.3092 5.58056 21.3449 5.4944 21.3449 5.40457C21.3449 5.31474 21.3092 5.22859 21.2457 5.16507C21.1822 5.10155 21.096 5.06586 21.0062 5.06586H14.9997V1.95199C14.9997 1.86216 14.9641 1.77601 14.9005 1.71249C14.837 1.64897 14.7509 1.61328 14.661 1.61328C14.5712 1.61328 14.4851 1.64897 14.4215 1.71249C14.358 1.77601 14.3223 1.86216 14.3223 1.95199V5.06586H8.29781C8.20798 5.06586 8.12183 5.10155 8.05831 5.16507C7.99479 5.22859 7.9591 5.31474 7.9591 5.40457C7.9591 5.4944 7.99479 5.58056 8.05831 5.64408C8.12183 5.7076 8.20798 5.74328 8.29781 5.74328H10.6959V6.97167C9.86491 7.22909 6.74652 8.1007 1.42201 8.58618C1.33218 8.59008 1.24757 8.6295 1.1868 8.69577C1.12603 8.76204 1.09408 8.84974 1.09797 8.93957C1.10187 9.0294 1.14129 9.11401 1.20756 9.17478C1.27383 9.23554 1.36153 9.2675 1.45136 9.2636H1.48072C7.8191 8.69683 11.0143 7.58586 11.1475 7.5407L11.1814 7.52489L11.2085 7.50909L11.2333 7.49102C11.2433 7.48475 11.2524 7.47716 11.2604 7.46844L11.2807 7.44812C11.2888 7.43876 11.2963 7.42896 11.3033 7.41876C11.3099 7.41138 11.3152 7.403 11.3191 7.39393C11.3191 7.38264 11.3304 7.3736 11.3349 7.36457C11.3394 7.35554 11.3349 7.34425 11.3462 7.33522C11.3472 7.32395 11.3472 7.31261 11.3462 7.30135C11.3473 7.29159 11.3473 7.28175 11.3462 7.27199C11.3473 7.25922 11.3473 7.24638 11.3462 7.2336V5.74328H14.3223V10.3181H8.29781C8.20798 10.3181 8.12183 10.3538 8.05831 10.4173C7.99479 10.4808 7.9591 10.567 7.9591 10.6568C7.9591 10.7467 7.99479 10.8328 8.05831 10.8963C8.12183 10.9599 8.20798 10.9955 8.29781 10.9955H10.6959V12.2262C9.86491 12.4836 6.73749 13.3642 1.42201 13.8407Z" fill="#164064"/>
<path d="M12.5564 27.0158C12.5875 27.0477 12.6247 27.073 12.6659 27.0901C12.707 27.1072 12.7512 27.1157 12.7958 27.1151C12.8403 27.1155 12.8844 27.1068 12.9256 27.0898C12.9667 27.0727 13.004 27.0475 13.0351 27.0158L17.4948 22.5516C17.5422 22.5044 17.5745 22.4443 17.5878 22.3788C17.601 22.3133 17.5946 22.2454 17.5693 22.1835C17.5437 22.1218 17.5005 22.069 17.4451 22.0317C17.3897 21.9944 17.3245 21.9741 17.2577 21.9735H12.8658L16.7677 18.0716C16.8276 18.0074 16.8601 17.9224 16.8586 17.8347C16.857 17.7469 16.8215 17.6632 16.7594 17.6012C16.6974 17.5391 16.6136 17.5036 16.5259 17.502C16.4382 17.5005 16.3532 17.533 16.289 17.5929L11.809 22.0729C11.7617 22.1202 11.7295 22.1806 11.7165 22.2462C11.7034 22.3119 11.7101 22.3799 11.7357 22.4418C11.7613 22.5036 11.8047 22.5565 11.8604 22.5937C11.916 22.631 11.9814 22.6509 12.0484 22.6509H16.4381L12.5564 26.5325C12.5241 26.5639 12.4983 26.6015 12.4808 26.643C12.4632 26.6845 12.4541 26.7291 12.4541 26.7741C12.4541 26.8192 12.4632 26.8638 12.4808 26.9053C12.4983 26.9468 12.5241 26.9844 12.5564 27.0158V27.0158Z" fill="#164064"/>
</g>
<defs>
<clipPath id="clip0_554_299">
<rect width="28" height="28" fill="white" transform="translate(1 1.5)"/>
</clipPath>
</defs>
</svg>
