<svg width="30" height="30" viewBox="0 0 30 30" fill="none" xmlns="http://www.w3.org/2000/svg">
<g clip-path="url(#clip0_554_273)">
<path d="M2.27328 27.9325C2.27328 27.9325 2.27328 27.9325 2.27328 27.9216C2.28998 27.8856 2.31212 27.8524 2.33891 27.8231C2.33891 27.8231 2.33891 27.8231 2.33891 27.8231L15.2189 14.9738L13.2086 12.9635L12.198 13.9741C12.1676 14.0047 12.1315 14.0289 12.0917 14.0454C12.0519 14.062 12.0092 14.0704 11.9661 14.0703C11.8999 14.0734 11.8344 14.0564 11.7781 14.0216C11.7217 13.9867 11.6773 13.9357 11.6505 13.8751C11.6238 13.8145 11.616 13.7472 11.6282 13.6821C11.6404 13.617 11.672 13.5571 11.7189 13.5103L12.7295 12.4997L11.0889 10.8569C11.0309 10.7947 10.9994 10.7124 11.0009 10.6274C11.0024 10.5424 11.0368 10.4613 11.0969 10.4012C11.1571 10.3411 11.2382 10.3066 11.3232 10.3051C11.4082 10.3036 11.4905 10.3352 11.5527 10.3931L13.4252 12.2678L15.6783 14.51L18.2464 11.9375L16.2339 9.92502L15.2189 10.9422C15.1574 11.0037 15.074 11.0382 14.987 11.0382C14.9001 11.0382 14.8167 11.0037 14.7552 10.9422C14.7245 10.9119 14.7001 10.8758 14.6835 10.836C14.6668 10.7962 14.6583 10.7535 14.6583 10.7103C14.6583 10.6672 14.6668 10.6245 14.6835 10.5847C14.7001 10.5449 14.7245 10.5088 14.7552 10.4785L15.7658 9.46783L14.1252 7.82502C14.0929 7.79498 14.0671 7.75876 14.0491 7.71851C14.0312 7.67826 14.0215 7.63481 14.0208 7.59075C14.02 7.54669 14.0281 7.50293 14.0446 7.46207C14.0611 7.42121 14.0857 7.3841 14.1168 7.35294C14.148 7.32178 14.1851 7.29722 14.226 7.28072C14.2668 7.26421 14.3106 7.25611 14.3546 7.25689C14.3987 7.25766 14.4421 7.26731 14.4824 7.28524C14.5226 7.30318 14.5589 7.32903 14.5889 7.36127L16.4658 9.23596L18.7189 11.4803L20.7861 9.41752C20.8479 9.3566 20.9312 9.32245 21.018 9.32245C21.1047 9.32245 21.188 9.3566 21.2498 9.41752C21.2805 9.44784 21.3049 9.48394 21.3215 9.52375C21.3382 9.56355 21.3467 9.60626 21.3467 9.6494C21.3467 9.69253 21.3382 9.73524 21.3215 9.77504C21.3049 9.81485 21.2805 9.85095 21.2498 9.88127L19.1739 11.9375L23.2973 16.0675C23.328 16.0978 23.3524 16.1339 23.369 16.1737C23.3857 16.2135 23.3942 16.2563 23.3942 16.2994C23.3942 16.3425 23.3857 16.3852 23.369 16.425C23.3524 16.4648 23.328 16.501 23.2973 16.5313C23.2358 16.5927 23.1524 16.6272 23.0655 16.6272C22.9785 16.6272 22.8951 16.5927 22.8336 16.5313L21.3439 15.0481L20.3333 16.0588C20.2714 16.1197 20.1883 16.1542 20.1014 16.155C20.0366 16.155 19.9732 16.1357 19.9193 16.0996C19.8654 16.0636 19.8233 16.0123 19.7985 15.9524C19.7737 15.8925 19.7672 15.8266 19.7799 15.763C19.7925 15.6993 19.8237 15.6409 19.8695 15.595L20.8867 14.5844L18.7102 12.3969L16.142 14.9738L18.5483 17.38L20.2633 19.095C20.3106 19.1407 20.3432 19.1995 20.3567 19.2638C20.3702 19.3282 20.3641 19.3952 20.3391 19.456C20.3141 19.5168 20.2714 19.5688 20.2165 19.605C20.1617 19.6413 20.0972 19.6602 20.0314 19.6594C19.9446 19.6586 19.8614 19.6241 19.7995 19.5631L18.3164 18.08L17.3058 19.0906C17.2442 19.152 17.1609 19.1866 17.0739 19.1869C17.0091 19.1868 16.9457 19.1676 16.8918 19.1315C16.8379 19.0954 16.7958 19.0442 16.771 18.9843C16.7462 18.9244 16.7397 18.8584 16.7524 18.7948C16.765 18.7312 16.7962 18.6728 16.842 18.6269L17.8439 17.625L15.6564 15.4375L3.62516 27.4556C17.9773 24.1219 28.8252 27.7772 28.9367 27.8144C29.0106 27.8395 29.0731 27.8902 29.113 27.9573C29.153 28.0244 29.1676 28.1035 29.1545 28.1804C29.1413 28.2574 29.1011 28.3271 29.0412 28.3771C28.9812 28.4271 28.9054 28.454 28.8273 28.4531C28.791 28.4525 28.7549 28.4466 28.7202 28.4356C28.6086 28.3963 17.3736 24.6075 2.65828 28.37C2.63287 28.3734 2.60713 28.3734 2.58172 28.37V28.37C2.54363 28.3685 2.50601 28.3611 2.47016 28.3481C2.43383 28.333 2.40049 28.3115 2.37172 28.2847V28.2847C2.34445 28.2571 2.3229 28.2244 2.30828 28.1885V28.1731C2.30828 28.1622 2.30828 28.1535 2.30828 28.1425C2.30505 28.1164 2.30505 28.0899 2.30828 28.0638V28.0528C2.28993 28.015 2.2781 27.9743 2.27328 27.9325V27.9325Z" fill="#164064"/>
<path d="M0.940947 5.03832L3.24001 2.7502C3.27033 2.71951 3.30643 2.69514 3.34624 2.67851C3.38604 2.66188 3.42875 2.65332 3.47189 2.65332C3.51502 2.65332 3.55773 2.66188 3.59754 2.67851C3.63734 2.69514 3.67344 2.71951 3.70376 2.7502C3.76468 2.812 3.79883 2.89529 3.79883 2.98207C3.79883 3.06885 3.76468 3.15214 3.70376 3.21395L1.4047 5.51301C1.3744 5.54368 1.33829 5.568 1.29847 5.58452C1.25865 5.60105 1.21594 5.60946 1.17282 5.60926C1.12966 5.60984 1.08683 5.6016 1.04696 5.58505C1.00709 5.5685 0.971013 5.54399 0.940947 5.51301C0.908569 5.48253 0.88277 5.44576 0.865135 5.40494C0.847499 5.36412 0.838402 5.32013 0.838402 5.27566C0.838402 5.2312 0.847499 5.18721 0.865135 5.14639C0.88277 5.10557 0.908569 5.0688 0.940947 5.03832V5.03832Z" fill="#164064"/>
<path d="M6.06836 7.65C5.98134 7.65 5.89788 7.61543 5.83634 7.55389C5.7748 7.49236 5.74023 7.4089 5.74023 7.32187V4.0625C5.74023 3.97548 5.7748 3.89202 5.83634 3.83048C5.89788 3.76895 5.98134 3.73438 6.06836 3.73438C6.15538 3.73438 6.23884 3.76895 6.30038 3.83048C6.36191 3.89202 6.39648 3.97548 6.39648 4.0625V7.32187C6.39648 7.4089 6.36191 7.49236 6.30038 7.55389C6.23884 7.61543 6.15538 7.65 6.06836 7.65V7.65Z" fill="#164064"/>
<path d="M11.014 5.69828C10.9259 5.69519 10.8426 5.65746 10.7821 5.59328L8.37587 3.18703C8.33672 3.15849 8.30437 3.12164 8.28115 3.07911C8.25794 3.03658 8.24442 2.98944 8.24159 2.94107C8.23875 2.8927 8.24667 2.84431 8.26476 2.79936C8.28285 2.75441 8.31067 2.71403 8.34622 2.68111C8.38177 2.64819 8.42417 2.62355 8.47038 2.60897C8.51658 2.59438 8.56545 2.59021 8.61345 2.59675C8.66146 2.6033 8.70743 2.62039 8.74804 2.6468C8.78866 2.67322 8.82292 2.7083 8.84837 2.74953L11.2546 5.15578C11.3005 5.20167 11.3317 5.26011 11.3443 5.32372C11.3569 5.38734 11.3504 5.45327 11.3256 5.51319C11.3008 5.57311 11.2588 5.62433 11.2049 5.66039C11.151 5.69645 11.0876 5.71573 11.0227 5.71578L11.014 5.69828Z" fill="#164064"/>
<path d="M28.7812 9.2334H25.5306C25.4436 9.2334 25.3601 9.19883 25.2986 9.13729C25.2371 9.07576 25.2025 8.9923 25.2025 8.90527C25.2025 8.81825 25.2371 8.73479 25.2986 8.67325C25.3601 8.61172 25.4436 8.57715 25.5306 8.57715H28.7812C28.8683 8.57715 28.9517 8.61172 29.0133 8.67325C29.0748 8.73479 29.1094 8.81825 29.1094 8.90527C29.1094 8.9923 29.0748 9.07576 29.0133 9.13729C28.9517 9.19883 28.8683 9.2334 28.7812 9.2334V9.2334Z" fill="#164064"/>
<path d="M24.6993 6.52592C24.6693 6.55689 24.6332 6.58141 24.5933 6.59796C24.5534 6.61451 24.5106 6.62275 24.4674 6.62217C24.4243 6.62237 24.3816 6.61396 24.3418 6.59743C24.302 6.5809 24.2659 6.55659 24.2356 6.52592C24.1746 6.46411 24.1405 6.38082 24.1405 6.29404C24.1405 6.20726 24.1746 6.12397 24.2356 6.06217L26.539 3.76092C26.6012 3.70296 26.6835 3.6714 26.7685 3.6729C26.8535 3.6744 26.9346 3.70884 26.9947 3.76896C27.0548 3.82908 27.0893 3.91018 27.0908 3.99519C27.0923 4.08019 27.0607 4.16247 27.0028 4.22467L24.6993 6.52592Z" fill="#164064"/>
<path d="M21.8926 5.59375C21.8056 5.59375 21.7221 5.55918 21.6606 5.49764C21.599 5.43611 21.5645 5.35265 21.5645 5.26562V1.875C21.5645 1.78798 21.599 1.70452 21.6606 1.64298C21.7221 1.58145 21.8056 1.54688 21.8926 1.54688C21.9796 1.54688 22.0631 1.58145 22.1246 1.64298C22.1861 1.70452 22.2207 1.78798 22.2207 1.875V5.26781C22.2201 5.35446 22.1853 5.43736 22.1238 5.49842C22.0624 5.55948 21.9792 5.59375 21.8926 5.59375Z" fill="#164064"/>
</g>
<defs>
<clipPath id="clip0_554_273">
<rect width="28" height="28" fill="white" transform="matrix(-1 0 0 1 29 1)"/>
</clipPath>
</defs>
</svg>
