<svg width="30" height="31" viewBox="0 0 30 31" fill="none" xmlns="http://www.w3.org/2000/svg">
<g clip-path="url(#clip0_554_277)">
<path d="M28.6432 10.9837L15.1942 1.67371C15.1372 1.63497 15.07 1.61426 15.0011 1.61426C14.9322 1.61426 14.865 1.63497 14.808 1.67371L1.35674 10.9837C1.3118 11.0148 1.275 11.0563 1.24946 11.1047C1.22391 11.153 1.21037 11.2068 1.20996 11.2614V29.0482C1.20996 29.1381 1.24565 29.2242 1.30917 29.2877C1.37269 29.3512 1.45884 29.3869 1.54867 29.3869H28.4513C28.5411 29.3869 28.6272 29.3512 28.6908 29.2877C28.7543 29.2242 28.79 29.1381 28.79 29.0482V11.2547C28.7885 11.2012 28.7744 11.1487 28.7489 11.1017C28.7234 11.0546 28.6872 11.0142 28.6432 10.9837V10.9837ZM28.1125 28.7118H1.88738V11.4353L15 2.36467L28.1125 11.4353V28.7118Z" fill="#164064"/>
<path d="M12.6384 16.7891H5.51644C5.42661 16.7891 5.34046 16.8247 5.27694 16.8883C5.21342 16.9518 5.17773 17.0379 5.17773 17.1278C5.17773 17.2176 5.21342 17.3038 5.27694 17.3673C5.34046 17.4308 5.42661 17.4665 5.51644 17.4665H12.6293C12.7192 17.4665 12.8053 17.4308 12.8689 17.3673C12.9324 17.3038 12.9681 17.2176 12.9681 17.1278C12.9681 17.0379 12.9324 16.9518 12.8689 16.8883C12.8053 16.8247 12.7192 16.7891 12.6293 16.7891H12.6384Z" fill="#164064"/>
<path d="M12.6384 25.21H5.51644C5.42661 25.21 5.34046 25.2456 5.27694 25.3092C5.21342 25.3727 5.17773 25.4588 5.17773 25.5487C5.17773 25.6385 5.21342 25.7247 5.27694 25.7882C5.34046 25.8517 5.42661 25.8874 5.51644 25.8874H12.6293C12.7192 25.8874 12.8053 25.8517 12.8689 25.7882C12.9324 25.7247 12.9681 25.6385 12.9681 25.5487C12.9681 25.4588 12.9324 25.3727 12.8689 25.3092C12.8053 25.2456 12.7192 25.21 12.6293 25.21H12.6384Z" fill="#164064"/>
<path d="M12.6384 22.4072H5.51644C5.42661 22.4072 5.34046 22.4429 5.27694 22.5064C5.21342 22.57 5.17773 22.6561 5.17773 22.7459C5.17773 22.8358 5.21342 22.9219 5.27694 22.9854C5.34046 23.049 5.42661 23.0846 5.51644 23.0846H12.6293C12.7192 23.0846 12.8053 23.049 12.8689 22.9854C12.9324 22.9219 12.9681 22.8358 12.9681 22.7459C12.9681 22.6561 12.9324 22.57 12.8689 22.5064C12.8053 22.4429 12.7192 22.4072 12.6293 22.4072H12.6384Z" fill="#164064"/>
<path d="M12.6384 19.5986H5.51644C5.42661 19.5986 5.34046 19.6343 5.27694 19.6978C5.21342 19.7614 5.17773 19.8475 5.17773 19.9373C5.17773 20.0272 5.21342 20.1133 5.27694 20.1768C5.34046 20.2404 5.42661 20.2761 5.51644 20.2761H12.6293C12.7192 20.2761 12.8053 20.2404 12.8689 20.1768C12.9324 20.1133 12.9681 20.0272 12.9681 19.9373C12.9681 19.8475 12.9324 19.7614 12.8689 19.6978C12.8053 19.6343 12.7192 19.5986 12.6293 19.5986H12.6384Z" fill="#164064"/>
<path d="M16.5381 17.1278C16.5381 17.2176 16.5738 17.3038 16.6373 17.3673C16.7008 17.4308 16.787 17.4665 16.8768 17.4665H23.9897C24.0795 17.4665 24.1657 17.4308 24.2292 17.3673C24.2927 17.3038 24.3284 17.2176 24.3284 17.1278C24.3284 17.0379 24.2927 16.9518 24.2292 16.8883C24.1657 16.8247 24.0795 16.7891 23.9897 16.7891H16.8768C16.787 16.7891 16.7008 16.8247 16.6373 16.8883C16.5738 16.9518 16.5381 17.0379 16.5381 17.1278Z" fill="#164064"/>
<path d="M23.9897 25.21H16.8768C16.787 25.21 16.7008 25.2456 16.6373 25.3092C16.5738 25.3727 16.5381 25.4588 16.5381 25.5487C16.5381 25.6385 16.5738 25.7247 16.6373 25.7882C16.7008 25.8517 16.787 25.8874 16.8768 25.8874H23.9897C24.0795 25.8874 24.1657 25.8517 24.2292 25.7882C24.2927 25.7247 24.3284 25.6385 24.3284 25.5487C24.3284 25.4588 24.2927 25.3727 24.2292 25.3092C24.1657 25.2456 24.0795 25.21 23.9897 25.21Z" fill="#164064"/>
<path d="M23.9897 22.4072H16.8768C16.787 22.4072 16.7008 22.4429 16.6373 22.5064C16.5738 22.57 16.5381 22.6561 16.5381 22.7459C16.5381 22.8358 16.5738 22.9219 16.6373 22.9854C16.7008 23.049 16.787 23.0846 16.8768 23.0846H23.9897C24.0795 23.0846 24.1657 23.049 24.2292 22.9854C24.2927 22.9219 24.3284 22.8358 24.3284 22.7459C24.3284 22.6561 24.2927 22.57 24.2292 22.5064C24.1657 22.4429 24.0795 22.4072 23.9897 22.4072Z" fill="#164064"/>
<path d="M23.9897 19.5986H16.8768C16.787 19.5986 16.7008 19.6343 16.6373 19.6978C16.5738 19.7614 16.5381 19.8475 16.5381 19.9373C16.5381 20.0272 16.5738 20.1133 16.6373 20.1768C16.7008 20.2404 16.787 20.2761 16.8768 20.2761H23.9897C24.0795 20.2761 24.1657 20.2404 24.2292 20.1768C24.2927 20.1133 24.3284 20.0272 24.3284 19.9373C24.3284 19.8475 24.2927 19.7614 24.2292 19.6978C24.1657 19.6343 24.0795 19.5986 23.9897 19.5986Z" fill="#164064"/>
<path d="M14.5484 7.73931C14.5715 7.70003 14.5865 7.65648 14.5925 7.61126C14.5984 7.56604 14.5951 7.52009 14.5829 7.47617C14.5706 7.43224 14.5496 7.39125 14.5211 7.35563C14.4926 7.32002 14.4572 7.29053 14.4171 7.26893C14.3769 7.24733 14.3328 7.23406 14.2874 7.22991C14.242 7.22577 14.1962 7.23085 14.1528 7.24483C14.1094 7.25881 14.0692 7.28142 14.0348 7.31129C14.0003 7.34116 13.9722 7.37768 13.9522 7.41867L12.34 10.3971C12.3111 10.448 12.2959 10.5056 12.2959 10.5642C12.2959 10.6227 12.3111 10.6803 12.34 10.7312C12.3699 10.7818 12.4126 10.8235 12.4637 10.8525C12.5148 10.8814 12.5726 10.8964 12.6313 10.8961H15.6345L13.5074 13.328C13.4781 13.3616 13.4558 13.4007 13.4416 13.443C13.4275 13.4853 13.4218 13.5299 13.4249 13.5744C13.4281 13.6189 13.44 13.6623 13.4599 13.7022C13.4799 13.742 13.5075 13.7776 13.5413 13.8067C13.6033 13.8621 13.684 13.8919 13.7671 13.8903C13.8154 13.8907 13.8633 13.8806 13.9073 13.8607C13.9514 13.8408 13.9906 13.8116 14.0222 13.7751L16.6348 10.7809C16.6778 10.732 16.7058 10.6716 16.7154 10.6071C16.725 10.5426 16.7157 10.4768 16.6888 10.4174C16.6619 10.358 16.6184 10.3077 16.5635 10.2725C16.5087 10.2372 16.4448 10.2185 16.3797 10.2187H13.2184L14.5484 7.73931Z" fill="#164064"/>
</g>
<defs>
<clipPath id="clip0_554_277">
<rect width="28" height="28" fill="white" transform="translate(1 1.5)"/>
</clipPath>
</defs>
</svg>
